# xmcd
#
# Track frame offsets:
#	150
#	17465
#	32350
#	47127
#	64405
#	81792
#	100320
#	122740
#	138565
#	154009
#	168859
#	185377
#
# Disc length: 2691 seconds
#
# Revision: 0
# Processed by: cddbd v1.5.2PL0 Copyright (c) Steve Scherf et al.
# Submitted via: MusicWizard 7.0.2
#
DISCID=940a810c
DTITLE=Nik P. and Reflex - Wie Der Wind
DYEAR=2001
DGENRE=Schlager
TTITLE0=Ireen
TTITLE1=Die Erste Nacht Mit Dir
TTITLE2=Dann Lösch Ich Das Licht
TTITLE3=Lass Uns Wie Kinder Sien
TTITLE4=Ich Kann Die Sterne Noch Sehen
TTITLE5=Kiki
TTITLE6=Immer Wenn Ich Dich Sehe
TTITLE7=Wie Der Wind
TTITLE8=Holiday
TTITLE9=Tiefe Wunden
TTITLE10=Es Ist Nur Mein Hertz
TTITLE11=Weil Du Mich Noch Immer Liebst
EXTD=
EXTT0=
EXTT1=
EXTT2=
EXTT3=
EXTT4=
EXTT5=
EXTT6=
EXTT7=
EXTT8=
EXTT9=
EXTT10=
EXTT11=
PLAYORDER=
